<svg width="30" height="30" viewBox="0 0 30 30" fill="none" xmlns="http://www.w3.org/2000/svg">
<g clip-path="url(#clip0_4_210)">
<path d="M2.69562 30C2.32178 30 1.94794 29.8585 1.66302 29.5736L0.426323 28.3369C0.149481 28.0621 -0.0020752 27.6943 -0.0020752 27.3043C-0.0020752 26.9143 0.149481 26.5465 0.426323 26.2717L6.26628 20.4318C6.83613 19.8619 7.76163 19.8619 8.33148 20.4318L9.56818 21.6685C10.138 22.2383 10.138 23.1638 9.56818 23.7337L3.72822 29.5736C3.4433 29.8585 3.06946 30 2.69562 30ZM2.52184 28.7148C2.61883 28.8118 2.77645 28.8118 2.87345 28.7148L8.7134 22.8748C8.8104 22.7779 8.8104 22.6202 8.7134 22.5232L7.47671 21.2865C7.37971 21.1895 7.22209 21.1895 7.1251 21.2865L1.28514 27.1265C1.2225 27.1891 1.21239 27.2639 1.21239 27.3023C1.21239 27.3407 1.2225 27.4155 1.28514 27.4781L2.52184 28.7148Z" fill="#130F26"/>
<path d="M18.9728 22.0564C12.8923 22.0564 7.94556 17.1097 7.94556 11.0292C7.94556 4.94881 12.8923 0 18.9728 0C25.0532 0 30 4.94679 30 11.0272C30 17.1076 25.0532 22.0544 18.9728 22.0544V22.0564ZM18.9728 1.21245C13.5612 1.21245 9.158 5.61565 9.158 11.0272C9.158 16.4388 13.5612 20.842 18.9728 20.842C24.3843 20.842 28.7875 16.4388 28.7875 11.0272C28.7875 5.61565 24.3843 1.21245 18.9728 1.21245Z" fill="#130F26"/>
<path d="M8.54981 21.9514C8.39421 21.9514 8.23862 21.8928 8.12141 21.7735C7.88498 21.5371 7.88498 21.1532 8.12141 20.9167L10.8413 18.1968C11.0778 17.9604 11.4617 17.9604 11.6981 18.1968C11.9346 18.4332 11.9346 18.8172 11.6981 19.0536L8.97821 21.7735C8.85899 21.8928 8.70541 21.9514 8.54981 21.9514Z" fill="#130F26"/>
<path d="M12.3225 11.5203C12.0032 11.5203 11.7365 11.2717 11.7183 10.9484C11.7062 10.7443 11.7042 10.5382 11.7102 10.3301C11.8335 6.50882 15.0424 3.50397 18.8677 3.62319C19.0334 3.62926 19.2011 3.63936 19.3648 3.65755C19.6982 3.6919 19.9387 3.99097 19.9043 4.32237C19.87 4.6558 19.5709 4.89829 19.2395 4.86191C19.1041 4.84777 18.9647 4.83766 18.8273 4.83362C17.3036 4.78512 15.8447 5.33275 14.7292 6.37747C13.6138 7.4222 12.9712 8.83874 12.9227 10.3664C12.9166 10.5382 12.9186 10.71 12.9287 10.8777C12.9469 11.2111 12.6923 11.498 12.3569 11.5162C12.3447 11.5162 12.3346 11.5162 12.3225 11.5162V11.5203Z" fill="#130F26"/>
</g>
<defs>
<clipPath id="clip0_4_210">
<rect width="30" height="30" fill="white"/>
</clipPath>
</defs>
</svg>
